<svg width="682" height="442" viewBox="0 0 682 442" fill="none" xmlns="http://www.w3.org/2000/svg">
<path opacity="0.2" fill-rule="evenodd" clip-rule="evenodd" d="M558.505 409.534C673.712 383.27 689.85 278.392 678.491 193.077C670.35 131.927 594.287 96.9366 513.828 73.9738C498.554 69.6145 482.757 64.7931 466.676 59.8847C384.775 34.8862 295.481 7.63145 230.071 27.676C222.66 18.7135 213.232 11.1704 199.989 6.24456C157.8 -9.44896 97.3636 6.68841 62.5159 29.7059C35.3361 47.6586 28.8605 74.9652 22.4752 101.891C20.3608 110.807 18.2564 119.681 15.4134 128.16C14.0956 132.09 12.6769 136.043 11.2529 140.011C3.35027 162.031 -4.71949 184.517 3.33886 206.196C8.39312 219.793 22.5533 229.842 36.8443 239.984C48.2632 248.088 59.7657 256.25 66.7732 266.33C78.1982 282.764 80.736 301.287 82.1628 319.576C83.2463 333.464 78.5462 348.386 73.8982 363.142C65.9552 388.359 58.1645 413.094 79.6477 431.357C100.097 448.742 137.118 440.582 172.158 432.859C184.405 430.159 196.411 427.513 207.382 426.03C223.145 423.899 237.686 418.744 252.148 413.616C270.156 407.232 288.042 400.89 308.016 400.483C330.112 400.033 353.057 407.115 375.487 414.037C407.113 423.799 437.714 433.244 463.465 420.81C469.372 417.958 474.099 414.486 477.836 410.528C503.159 415.722 529.99 416.034 558.505 409.534Z" fill="#09825D"/>
<path d="M486.8 90H195.2C190.903 90 186.783 91.7008 183.745 94.7281C180.707 97.7555 179 101.862 179 106.143V170.714H193.467C209.602 170.714 224.571 181.708 227.163 197.576C227.952 202.21 227.718 206.959 226.475 211.493C225.233 216.027 223.012 220.236 219.969 223.827C216.926 227.417 213.132 230.303 208.854 232.282C204.576 234.261 199.917 235.286 195.2 235.286H179V299.857C179 304.138 180.707 308.244 183.745 311.272C186.783 314.299 190.903 316 195.2 316H486.8C491.097 316 495.217 314.299 498.255 311.272C501.293 308.244 503 304.138 503 299.857V235.286H486.8C482.083 235.286 477.424 234.261 473.146 232.282C468.868 230.303 465.075 227.417 462.031 223.827C458.988 220.236 456.767 216.027 455.525 211.493C454.282 206.959 454.048 202.21 454.837 197.576C457.429 181.708 472.398 170.714 488.533 170.714H503V106.143C503 101.862 501.293 97.7555 498.255 94.7281C495.217 91.7008 491.097 90 486.8 90ZM292.4 154.571C296.697 154.571 300.817 156.272 303.855 159.3C306.893 162.327 308.6 166.433 308.6 170.714C308.6 174.996 306.893 179.102 303.855 182.129C300.817 185.156 296.697 186.857 292.4 186.857C288.103 186.857 283.983 185.156 280.945 182.129C277.907 179.102 276.2 174.996 276.2 170.714C276.2 166.433 277.907 162.327 280.945 159.3C283.983 156.272 288.103 154.571 292.4 154.571V154.571ZM279.44 257.886L376.64 128.743L402.56 148.114L305.36 277.257L279.44 257.886V257.886ZM389.6 251.429C385.304 251.429 381.183 249.728 378.145 246.7C375.107 243.673 373.4 239.567 373.4 235.286C373.4 231.004 375.107 226.898 378.145 223.871C381.183 220.844 385.304 219.143 389.6 219.143C393.897 219.143 398.017 220.844 401.055 223.871C404.093 226.898 405.8 231.004 405.8 235.286C405.8 239.567 404.093 243.673 401.055 246.7C398.017 249.728 393.897 251.429 389.6 251.429Z" fill="#1F4173"/>
</svg>
