<svg id="Layer_1" data-name="Layer 1" xmlns="http://www.w3.org/2000/svg" viewBox="0 0 287.85 270.54"><defs><style>.cls-1{fill:#09936f;}.cls-2{fill:#513510;opacity:0.18;}.cls-3{fill:#fff;}</style></defs><path class="cls-1" d="M510.61,425.82c3.1-24.31,20.49-44.19,43.44-49.92,19.23-4.8,42.28.34,56.4,17,10.84,12.82,12.24,27.47,12.48,33.12H610.69s3.77-23.26-24-37.2c-2.66-1.17-19.83-8.34-38.15.23-22.39,10.47-25.95,34.83-26.17,36.49Z" transform="translate(-467.34 -374.18)"/><path class="cls-1" d="M542,425.82c3.09-24.31,20.48-44.19,43.44-49.92,19.22-4.8,42.27.34,56.4,17,10.84,12.82,12.24,27.47,12.48,33.12H642.11s3.76-23.26-24-37.2c-2.67-1.17-19.84-8.34-38.16.23-22.38,10.47-26,34.83-26.16,36.49Z" transform="translate(-467.34 -374.18)"/><path class="cls-1" d="M704.17,459.37V602.8a41.92,41.92,0,0,1-41.92,41.93h-153a41.92,41.92,0,0,1-41.92-41.93V459.37a41.92,41.92,0,0,1,41.92-41.93h153A41.92,41.92,0,0,1,704.17,459.37Z" transform="translate(-467.34 -374.18)"/><path class="cls-2" d="M640.7,477l0,0-.57-.93L598.3,504.35a31.73,31.73,0,0,0,4.25,0h0c.42,0,.83-.06,1.23-.1,1-.1,2-.27,3-.46-.28.66-.56,1.31-.82,2-4.8,12.05-7.37,25.18-8.68,34.12a3,3,0,0,1-3.18,2.6c-13.81-.82-34.84-2.35-47.12-3.3l-.21,0L530.65,550.1l.59.8,0,0a7,7,0,0,0,4.56,2.42c4.56.47,44.48,3.49,62.59,4.42l1.15.06.33,14.81a2.25,2.25,0,0,1-2.25,2.3h0l-40.25-.45L557.23,586v0l.33.45,5.43,7.34L572,606l28.7,38.77h61.55a41.92,41.92,0,0,0,41.92-41.93V579.17ZM591.07,604.57c0-3.06,2.2-5.52,4.83-5.52h0c2.65,0,4.79,2.55,4.76,5.62s-2.21,5.53-4.84,5.53h0C593.17,610.17,591,607.64,591.07,604.57Z" transform="translate(-467.34 -374.18)"/><path class="cls-3" d="M611.85,572.37a14.23,14.23,0,0,1-14.21,14.53h-.16l-39.92-.45h-.34V586l.13-11.48,40.25.45h0a2.25,2.25,0,0,0,2.25-2.3l-.33-14.81-.22-9.68,12-.27,0,.76s0,0,0,0Z" transform="translate(-467.34 -374.18)"/><path class="cls-3" d="M596,593.73h-.11c-5.54,0-10.08,4.82-10.15,10.78s4.43,10.94,10,11h.1a9.73,9.73,0,0,0,7.12-3.15,11.28,11.28,0,0,0,3-7.62C606.07,598.73,601.58,593.8,596,593.73Zm-.15,16.47h0c-2.65,0-4.78-2.56-4.75-5.63s2.2-5.52,4.83-5.52h0c2.65,0,4.79,2.55,4.76,5.62S598.49,610.2,595.86,610.2Z" transform="translate(-467.34 -374.18)"/><path class="cls-3" d="M620.85,482.69Z" transform="translate(-467.34 -374.18)"/><path class="cls-3" d="M640.91,478.17l-.12,8.59a3.62,3.62,0,0,1-2.92,3.45c-.77.16-7.41,3.68-9.8,6.52a44.88,44.88,0,0,0-5.62,8.85c-7.56,15.2-10.35,35.74-11.13,43.06,0,0,0,0,0,0a.06.06,0,0,0,0,0h0c-.12,1.18-.2,2-.23,2.4l-.36,4.23a2.82,2.82,0,0,1-.38,1.21,3,3,0,0,1-2.75,1.56l-4.25-.13c-1.07,0-2.34-.09-3.78-.15l-1.15-.06c-18.11-.93-58-3.95-62.59-4.42a7,7,0,0,1-4.56-2.42l0,0-.59-.8a1.62,1.62,0,0,1-.1-.18,6.4,6.4,0,0,1-.57-1.28c-1.52-4.56-12.35-37.23-15.67-47.28a3,3,0,0,1,2-3.86l8.47-2.63a3,3,0,0,1,3.81,2c2.95,9.39,10.28,32.37,12.8,40A3,3,0,0,0,544,539l2.49.2.28,0,.21,0c12.28.95,33.31,2.48,47.12,3.3a3,3,0,0,0,3.18-2.6c1.31-8.94,3.88-22.07,8.68-34.12.26-.67.54-1.32.82-2-1,.19-2,.36-3,.46-.4,0-.81.08-1.23.1h0a31.73,31.73,0,0,1-4.25,0h-.14a29.33,29.33,0,0,1-3.08-.35c-14.17-2.34-25.8-13.59-29.63-28.64l9.67-2.65c2.77,10.94,11.09,19.72,21.39,20.79,10.75,1.12,15.22-3,18.16-5.42l5.81-6.14c3.79-4.51,10.43-6.85,17.13-6.84a2.89,2.89,0,0,1,2.5,1,3,3,0,0,1,.49.73,1.19,1.19,0,0,1,.08.2l0,0A2.69,2.69,0,0,1,640.91,478.17Z" transform="translate(-467.34 -374.18)"/><path class="cls-3" d="M569.29,597.09a9.7,9.7,0,0,0-6.3-3.3,6.84,6.84,0,0,0-.91-.06H562a9.58,9.58,0,0,0-3.39.63,8.75,8.75,0,0,0-.83.37,10.22,10.22,0,0,0-2.9,2.16,11.28,11.28,0,0,0-3,7.61c-.07,6,4.42,11,10,11H562a9.71,9.71,0,0,0,6.75-2.79,10.27,10.27,0,0,0,1.08-1.2A11.16,11.16,0,0,0,572,606a8.25,8.25,0,0,0,.09-1.22A11.27,11.27,0,0,0,569.29,597.09Zm-2.8,9.38a5.8,5.8,0,0,1-.69,1.49A4.65,4.65,0,0,1,562,610.2h-.05c-2.66,0-4.79-2.56-4.75-5.63a5.53,5.53,0,0,1,3.39-5.25,3.88,3.88,0,0,1,1.12-.25,1.56,1.56,0,0,1,.31,0H562a4.45,4.45,0,0,1,3.29,1.57,5.94,5.94,0,0,1,1.45,4A6.52,6.52,0,0,1,566.49,606.47Z" transform="translate(-467.34 -374.18)"/><circle class="cls-3" cx="123.95" cy="85.98" r="6.89"/><circle class="cls-3" cx="148.28" cy="85.94" r="6.89"/><text x="-467.34" y="-374.18"/></svg>