<svg width="353" height="342" viewBox="0 0 353 342" fill="none" xmlns="http://www.w3.org/2000/svg">
<path d="M253.066 341.864C308.258 341.864 353 337.735 353 332.642C353 327.549 308.258 323.421 253.066 323.421C197.873 323.421 153.131 327.549 153.131 332.642C153.131 337.735 197.873 341.864 253.066 341.864Z" fill="white"/>
<path opacity="0.1" d="M253.066 341.864C308.258 341.864 353 337.735 353 332.642C353 327.549 308.258 323.421 253.066 323.421C197.873 323.421 153.131 327.549 153.131 332.642C153.131 337.735 197.873 341.864 253.066 341.864Z" fill="#292A2E"/>
<path d="M52.5524 98.4878L114.358 98.4878L114.358 18.04L52.5524 18.04L52.5524 98.4878Z" fill="#F4F4F4"/>
<path d="M52.5519 18.0405H50.5469V98.4884H52.5519V18.0405Z" fill="#F4F4F4"/>
<path opacity="0.05" d="M52.5519 18.0405H50.5469V98.4884H52.5519V18.0405Z" fill="#292A2E"/>
<path opacity="0.05" d="M63.8114 83.8335H103.1V32.6947L63.8114 32.6947L63.8114 83.8335Z" fill="#292A2E"/>
<path opacity="0.03" d="M63.8119 83.8335H65.8594V32.6947H63.8119L63.8119 83.8335Z" fill="#292A2E"/>
<path d="M2.00365 169.283H52.5508L52.5508 118.271H2.00365L2.00365 169.283Z" fill="#F4F4F4"/>
<path opacity="0.05" d="M11.2124 159.991H43.3438L43.3438 127.564H11.2124L11.2124 159.991Z" fill="#292A2E"/>
<path d="M2.00504 118.271H0V169.283H2.00504V118.271Z" fill="#F4F4F4"/>
<path opacity="0.05" d="M2.00504 118.271H0V169.283H2.00504V118.271Z" fill="#292A2E"/>
<path opacity="0.03" d="M11.2123 159.991H13.2598L13.2598 127.564H11.2123L11.2123 159.991Z" fill="#292A2E"/>
<path d="M310.233 17.8486H181.254V146.828H310.233V17.8486Z" fill="#F4F4F4"/>
<path d="M181.255 17.8486H179.776V146.828H181.255V17.8486Z" fill="#F4F4F4"/>
<path opacity="0.05" d="M181.255 17.8486H179.776V146.828H181.255V17.8486Z" fill="#292A2E"/>
<path opacity="0.05" d="M212.501 106.726V72.981H240.143V92.5864H282.96V127.3H301.159V146.828H282.96H279.455H187.459V106.726H212.501Z" fill="#292A2E"/>
<path opacity="0.34" d="M236.594 76.644H216.465V80.3079H236.594V76.644Z" fill="#FFFFFA"/>
<path opacity="0.34" d="M236.594 84.2363H216.465V87.9002H236.594V84.2363Z" fill="#FFFFFA"/>
<path opacity="0.34" d="M236.594 91.8291H216.465V95.493H236.594V91.8291Z" fill="#FFFFFA"/>
<path opacity="0.34" d="M194.738 110.282H191.027V113.946H194.738V110.282Z" fill="#FFFFFA"/>
<path opacity="0.34" d="M194.738 117.875H191.027V121.538H194.738V117.875Z" fill="#FFFFFA"/>
<path opacity="0.34" d="M194.738 125.467H191.027V129.131H194.738V125.467Z" fill="#FFFFFA"/>
<path opacity="0.34" d="M201.601 110.282H197.891V113.946H201.601V110.282Z" fill="#FFFFFA"/>
<path opacity="0.34" d="M201.601 117.875H197.891V121.538H201.601V117.875Z" fill="#FFFFFA"/>
<path opacity="0.34" d="M201.601 125.467H197.891V129.131H201.601V125.467Z" fill="#FFFFFA"/>
<path opacity="0.34" d="M208.28 110.282H204.569V113.946H208.28V110.282Z" fill="#FFFFFA"/>
<path opacity="0.34" d="M208.28 117.875H204.569V121.538H208.28V117.875Z" fill="#FFFFFA"/>
<path opacity="0.34" d="M208.28 125.467H204.569V129.131H208.28V125.467Z" fill="#FFFFFA"/>
<path d="M181.254 81.6144H207.206V17.8481H209.353V81.6144H279.454V17.8481H281.6V81.6144H310.233V83.7606H281.6V146.828H279.454V83.7606H209.353V146.828H207.206V83.7606H181.254V81.6144Z" fill="white"/>
<path d="M315.372 146.672H176.116V150.961H315.372V146.672Z" fill="#F4F4F4"/>
<path opacity="0.1" d="M315.372 146.672H176.116V150.961H315.372V146.672Z" fill="#292A2E"/>
<path opacity="0.1" d="M176.116 146.672H174.105V150.961H176.116V146.672Z" fill="#292A2E"/>
<path opacity="0.1" d="M176.116 146.672H174.105V150.961H176.116V146.672Z" fill="#292A2E"/>
<path d="M288.117 168.769C268.372 168.769 252.364 174.156 252.364 180.801V195.125H323.871V180.801C323.871 174.156 307.864 168.769 288.117 168.769Z" fill="#367CFF"/>
<path opacity="0.49" d="M288.117 168.769C268.372 168.769 252.364 174.156 252.364 180.801V195.125H323.871V180.801C323.871 174.156 307.864 168.769 288.117 168.769Z" fill="white"/>
<path opacity="0.49" d="M314.131 180.802V195.124H252.363V180.802C252.363 174.712 265.807 169.679 283.247 168.883C300.689 169.679 314.131 174.712 314.131 180.802Z" fill="white"/>
<path d="M323.871 334.31H325.071L323.871 193.854L322.681 195.055L323.529 293.166L281.171 293.886L280.316 195.044L279.127 195.055L279.982 293.906L254.412 294.341L253.553 195.044L252.363 193.865L253.563 334.31L254.743 334.3L254.421 295.531L279.992 295.096L280.316 334.31L281.506 334.3L281.181 295.076L323.54 294.356L323.871 334.31Z" fill="#292A2E"/>
<path d="M216.025 313.281C216.025 313.281 213.899 324.303 203.579 324.917C193.259 325.531 195.497 333.752 195.497 333.752H234.933V314.049L216.025 313.281Z" fill="#367CFF"/>
<path d="M238.525 280.13C238.525 280.13 241.482 290.958 232.493 296.065C223.505 301.172 229.141 307.561 229.141 307.561L264.527 290.151L255.83 272.472L238.525 280.13Z" fill="#367CFF"/>
<path d="M234.781 287.286L208.117 186.682C206.095 175.568 209.14 170.75 213.831 166.07C222.074 157.848 256.231 140.349 256.231 140.349L297.208 140.237C308.074 140.237 318.755 150.951 318.755 161.816C318.755 172.681 307.709 181.896 296.844 181.896L246.384 186.932L260.062 279.049L234.781 287.286Z" fill="#262626"/>
<path d="M260.062 279.048L254.677 242.783L227.396 259.424L234.781 287.286L260.062 279.048Z" fill="#0C0C0C"/>
<path d="M266.246 160.707C266.246 160.707 249.02 164.546 231.96 181.606C221.616 191.95 222.464 210.668 224.016 246.669L240.96 221.642L259.545 188.124L266.246 160.707Z" fill="#0C0C0C"/>
<path d="M325.888 140.225L298.059 140.094L298.049 140.461H289.622C289.622 140.461 268.514 159.883 251.521 172.122C239.16 181.024 231.619 189.512 230.967 198.762C229.376 221.311 211.437 317.48 211.437 317.48L238.436 321.569L262.129 206.639C262.129 206.639 299.176 189.558 307.746 183.616C315.815 178.019 321.515 175.855 324.185 169.747C328.797 159.198 325.888 140.225 325.888 140.225Z" fill="#262626"/>
<path d="M294.669 147.235L249.523 147.833L274.848 162.958L295.92 152.077C296.427 151.804 296.829 151.369 297.06 150.841C297.291 150.313 297.338 149.723 297.194 149.165C297.05 148.607 296.723 148.114 296.265 147.764C295.807 147.414 295.245 147.228 294.669 147.235V147.235Z" fill="#292A2E"/>
<path opacity="0.2" d="M294.669 147.235L249.523 147.833L274.848 162.958L295.92 152.077C296.427 151.804 296.829 151.369 297.06 150.841C297.291 150.313 297.338 149.723 297.194 149.165C297.05 148.607 296.723 148.114 296.265 147.764C295.807 147.414 295.245 147.228 294.669 147.235V147.235Z" fill="white"/>
<path d="M249.783 66.2446L237.013 107.619L211.437 141.106L226.377 158.256L256.805 124.295C258.207 123.187 259.304 121.74 259.992 120.091L260.466 118.944L278.041 76.4185L249.783 66.2446Z" fill="#09936F"/>
<path d="M269.453 22.3265C269.453 22.3265 264.307 18.4401 263.032 9.50152C262.045 2.58025 268.43 7.06423 268.43 7.06423C268.43 7.06423 267.767 2.07344 271.404 2.56875C275.041 3.06406 277.075 8.30667 277.075 8.30667" fill="#0C0C0C"/>
<path d="M290.197 3.15234C290.197 3.15234 308.239 5.0864 301.717 29.5339L300.121 29.641L296.88 29.8583" fill="#0C0C0C"/>
<path d="M272.475 55.0665C272.554 55.0561 273.434 69.6601 290.399 68.3883C302.146 67.5083 306.334 55.0458 306.603 55.0458C305.337 54.7766 303.772 54.3681 303.15 54.2281C301.794 53.9135 300.566 53.1936 299.63 52.1642C298.693 51.1347 298.092 49.8445 297.907 48.4652C297.564 46.3951 298.145 35.8036 297.967 33.709L279.938 37.7333C280.191 42.1574 281.954 52.413 275.774 54.2281C274.745 54.5279 273.637 54.8055 272.475 55.0665Z" fill="#E98862"/>
<path opacity="0.52" d="M279.686 50.0364C279.968 49.1261 280.15 48.1877 280.228 47.2378C280.426 45.0703 280.386 42.8877 280.109 40.729C283.774 40.2351 287.227 38.7231 290.075 36.3647C290.41 37.6012 292.252 43.0041 291.741 44.1771C290.778 46.3979 286.25 50.0364 279.686 50.0364Z" fill="#0C0C0C"/>
<path d="M283.407 47.1461C290.52 46.508 299.034 42.0138 299.157 32.3578L299.268 23.6452C299.39 13.9896 294.418 6.09754 285.327 5.98174C276.236 5.86634 269.341 13.6073 269.218 23.2633L269.169 27.1203C269.175 28.445 269.272 29.7677 269.458 31.0792C269.924 34.5492 270.647 39.8247 273.002 43.3934C275.226 46.7626 278.862 47.5534 283.407 47.1461Z" fill="#E98862"/>
<path opacity="0.52" d="M280.107 38.3202C278.639 38.3867 277.175 38.1073 275.835 37.5045C275.781 37.4797 275.738 37.4345 275.716 37.3786C275.694 37.3227 275.695 37.2604 275.719 37.2052C275.742 37.15 275.786 37.1061 275.842 37.0831C275.897 37.0601 275.96 37.0598 276.015 37.0821C278.903 38.3134 281.524 38.1334 283.597 36.561C283.639 36.528 283.682 36.4971 283.727 36.4686C283.779 36.4441 283.838 36.4401 283.893 36.4573C283.948 36.4746 283.995 36.5119 284.024 36.5618C284.052 36.6117 284.061 36.6706 284.049 36.7268C284.036 36.783 284.003 36.8324 283.955 36.8652C283.939 36.8755 283.912 36.8965 283.876 36.9251C282.786 37.755 281.474 38.2408 280.107 38.3202V38.3202Z" fill="#0C0C0C"/>
<path opacity="0.52" d="M280.174 40.4953C279.909 40.5116 279.643 40.5052 279.379 40.4762C279.349 40.473 279.32 40.464 279.294 40.4496C279.267 40.4352 279.244 40.4158 279.225 40.3923C279.206 40.3689 279.192 40.342 279.183 40.3131C279.175 40.2842 279.172 40.254 279.175 40.224C279.178 40.1941 279.187 40.165 279.202 40.1386C279.216 40.1121 279.236 40.0888 279.259 40.0699C279.282 40.0509 279.309 40.0368 279.338 40.0283C279.367 40.0197 279.397 40.017 279.427 40.0202C281.016 40.1887 281.775 39.461 281.807 39.4297C281.85 39.3866 281.908 39.3624 281.969 39.3623C282.03 39.3622 282.088 39.3863 282.131 39.4293C282.174 39.4723 282.198 39.5306 282.199 39.5914C282.199 39.6522 282.174 39.7106 282.132 39.7537C281.584 40.2195 280.893 40.4816 280.174 40.4953Z" fill="#0C0C0C"/>
<path d="M272.22 28.9766C272.838 28.9766 273.339 28.4752 273.339 27.8567C273.339 27.2382 272.838 26.7368 272.22 26.7368C271.601 26.7368 271.1 27.2382 271.1 27.8567C271.1 28.4752 271.601 28.9766 272.22 28.9766Z" fill="#0C0C0C"/>
<path d="M283.16 28.2906C283.778 28.2906 284.28 27.7892 284.28 27.1707C284.28 26.5522 283.778 26.0508 283.16 26.0508C282.541 26.0508 282.04 26.5522 282.04 27.1707C282.04 27.7892 282.541 28.2906 283.16 28.2906Z" fill="#0C0C0C"/>
<path d="M298.555 35.2945C301.318 35.3298 303.595 32.4024 303.631 29.6395C303.667 26.8766 301.446 25.3244 298.683 25.2896L297.236 27.1225L296.181 35.2644L298.555 35.2945Z" fill="#E98862"/>
<path d="M295.806 30.8524C295.806 30.8524 294.873 17.1895 290.73 16.3456C287.971 15.7837 281.279 19.6978 275.081 18.5156C272.37 18.0001 269.796 18.6695 269.534 19.9504C269.43 20.4576 267.741 13.1691 271.987 7.63937C275.368 3.23748 286.431 1.99226 291.464 3.43577C305.401 7.43395 299.251 25.8882 299.251 25.8882L298.63 30.5986L295.806 30.8524Z" fill="#0C0C0C"/>
<g opacity="0.52">
<path opacity="0.52" d="M278.436 35.0957C278.43 35.0961 278.424 35.0961 278.418 35.0957C277.528 35.087 276.035 34.9724 276.041 34.3066C276.047 33.7545 277.618 27.8128 277.797 27.137C277.812 27.0789 277.85 27.0292 277.902 26.999C277.954 26.9687 278.016 26.9604 278.074 26.9758C278.133 26.9912 278.182 27.0291 278.212 27.0811C278.243 27.1332 278.251 27.1951 278.236 27.2532C277.538 29.8848 276.499 33.9362 276.495 34.3121C276.581 34.4707 277.5 34.6341 278.422 34.6436C278.48 34.6449 278.536 34.6684 278.577 34.7093C278.618 34.7503 278.642 34.8055 278.644 34.8637C278.646 34.9218 278.625 34.9784 278.586 35.0217C278.547 35.065 278.493 35.0918 278.436 35.0965V35.0957Z" fill="#0C0C0C"/>
</g>
<path d="M275.399 21.785C274.463 21.5274 273.475 21.5274 272.539 21.785C272.08 21.9086 271.642 22.1005 271.239 22.3544C270.841 22.603 270.476 22.901 270.152 23.2411C270.093 23.3017 270.059 23.383 270.058 23.468C270.056 23.553 270.088 23.6352 270.146 23.6975C270.204 23.7598 270.283 23.7975 270.368 23.8026C270.453 23.8077 270.537 23.7799 270.601 23.725L270.622 23.7075C270.921 23.4302 271.254 23.1918 271.613 22.9981C271.965 22.8051 272.345 22.6666 272.738 22.5872C273.513 22.4248 274.317 22.4698 275.069 22.7177L275.1 22.7288C275.223 22.7685 275.357 22.7586 275.473 22.7012C275.589 22.6438 275.677 22.5436 275.721 22.4217C275.764 22.2998 275.757 22.1659 275.703 22.0484C275.649 21.931 275.551 21.8393 275.431 21.7929L275.399 21.785Z" fill="#0C0C0C"/>
<path d="M282.025 22.3465C282.737 22.0005 283.528 21.8488 284.317 21.9067C284.718 21.9327 285.112 22.0193 285.487 22.1636C285.868 22.3082 286.229 22.5001 286.563 22.7347L286.584 22.749C286.656 22.7951 286.742 22.8118 286.826 22.7956C286.909 22.7794 286.984 22.7315 287.033 22.662C287.082 22.5925 287.102 22.5067 287.09 22.4225C287.077 22.3383 287.033 22.2622 286.965 22.21C286.599 21.916 286.198 21.6694 285.77 21.476C285.337 21.2781 284.877 21.1463 284.405 21.085C283.444 20.9539 282.465 21.0851 281.571 21.4645C281.512 21.4905 281.457 21.5281 281.412 21.5751C281.367 21.6221 281.331 21.6775 281.307 21.7383C281.283 21.799 281.271 21.8639 281.273 21.9292C281.274 21.9945 281.288 22.0589 281.314 22.1188C281.366 22.2398 281.465 22.3349 281.587 22.3832C281.648 22.4072 281.713 22.4189 281.778 22.4178C281.844 22.4166 281.908 22.4026 281.968 22.3766L281.996 22.3635L282.025 22.3465Z" fill="#0C0C0C"/>
<path d="M281.572 7.70216C282.201 4.69215 281.053 1.90567 279.008 1.4784C276.963 1.05113 274.795 3.14487 274.166 6.15488C273.537 9.16489 274.685 11.9514 276.73 12.3786C278.775 12.8059 280.943 10.7122 281.572 7.70216Z" fill="#0C0C0C"/>
<path d="M251.394 87.1655C251.928 93.444 255.716 132.616 256.232 140.35H325.859C326.259 133.375 328.055 102.874 329.572 89.2324C331.02 76.2163 333.05 70.2932 331.382 66.2486C328.44 59.1144 319.077 55.9288 312.736 55.0702C308.864 54.546 303.04 54.1704 303.04 54.1704C303.04 54.1704 302.547 64.1452 290.79 64.7004C274.784 65.4539 275.854 54.1704 275.774 54.1704C273.181 54.1704 259.068 56.0561 255.538 58.3562C250.554 61.6048 249.081 66.0325 249.022 70.1001C248.956 74.7847 250.789 80.0436 251.394 87.1655Z" fill="#09936F"/>
<path d="M254.924 124.913C254.874 124.913 254.826 124.894 254.79 124.861C254.753 124.828 254.73 124.781 254.726 124.732L252.088 94.5612C252.083 94.5088 252.099 94.4567 252.133 94.4164C252.167 94.3761 252.215 94.3509 252.268 94.3462C252.294 94.3436 252.32 94.3461 252.345 94.3538C252.37 94.3615 252.393 94.3742 252.413 94.391C252.433 94.4078 252.45 94.4285 252.462 94.4518C252.474 94.4751 252.481 94.5006 252.483 94.5267L255.121 124.697C255.125 124.75 255.109 124.802 255.075 124.842C255.041 124.882 254.993 124.907 254.941 124.912C254.935 124.913 254.929 124.913 254.924 124.913V124.913Z" fill="#0C0C0C"/>
<path d="M259.972 142.438L269.532 134.681L267.923 135.136C267.401 135.273 266.846 135.206 266.372 134.949C265.897 134.692 265.537 134.265 265.365 133.753C265.286 133.486 265.262 133.205 265.294 132.928C265.327 132.652 265.415 132.384 265.555 132.143C265.694 131.901 265.881 131.691 266.104 131.524C266.328 131.357 266.583 131.238 266.854 131.172L286.938 126.288L288.666 132.685C289.203 134.672 289.135 136.774 288.469 138.721C287.804 140.669 286.572 142.373 284.932 143.616L277.49 149.233C277.109 149.531 276.636 149.69 276.152 149.68C275.668 149.671 275.202 149.495 274.833 149.182C274.505 148.892 274.278 148.504 274.187 148.076C274.095 147.648 274.142 147.202 274.322 146.802C274.29 146.793 274.261 146.775 274.238 146.75C274.218 146.726 274.204 146.697 274.198 146.667C274.192 146.636 274.193 146.604 274.202 146.574L272.831 147.613C272.408 147.947 271.873 148.108 271.335 148.064C270.797 148.019 270.296 147.772 269.933 147.372C269.622 147.003 269.45 146.536 269.449 146.054C269.448 145.571 269.616 145.104 269.926 144.733C269.904 144.73 269.883 144.723 269.864 144.712L269.301 145.139C268.92 145.438 268.448 145.596 267.964 145.587C267.48 145.577 267.014 145.401 266.644 145.088C266.247 144.736 266.001 144.244 265.959 143.714C265.916 143.185 266.08 142.66 266.417 142.249C266.409 142.237 266.402 142.225 266.397 142.212L262.415 145.442C262.218 145.602 261.991 145.722 261.747 145.794C261.504 145.867 261.248 145.89 260.995 145.864C260.743 145.838 260.498 145.762 260.274 145.641C260.051 145.52 259.853 145.356 259.693 145.158C259.533 144.961 259.413 144.734 259.341 144.49C259.269 144.247 259.245 143.991 259.271 143.739C259.298 143.486 259.373 143.241 259.494 143.017C259.616 142.794 259.779 142.596 259.977 142.436L259.972 142.438Z" fill="#E98862"/>
<path opacity="0.2" d="M266.635 142.328C266.656 142.32 266.675 142.309 266.693 142.295L270.523 139.112C270.543 139.096 270.559 139.076 270.571 139.054C270.583 139.031 270.59 139.007 270.592 138.982C270.594 138.957 270.592 138.931 270.584 138.907C270.577 138.883 270.564 138.86 270.548 138.841C270.532 138.821 270.512 138.805 270.49 138.794C270.467 138.782 270.443 138.775 270.418 138.772C270.392 138.77 270.367 138.773 270.343 138.78C270.319 138.788 270.296 138.8 270.277 138.816L266.446 141.998C266.412 142.027 266.388 142.067 266.38 142.112C266.372 142.157 266.38 142.203 266.402 142.242C266.425 142.281 266.46 142.311 266.503 142.327C266.545 142.343 266.592 142.343 266.635 142.328Z" fill="#0A0A0A"/>
<path opacity="0.2" d="M270.01 144.731C270.031 144.724 270.05 144.713 270.067 144.699L273.097 142.221C273.137 142.189 273.162 142.142 273.167 142.092C273.172 142.041 273.157 141.99 273.124 141.95C273.092 141.911 273.045 141.886 272.994 141.88C272.944 141.875 272.893 141.891 272.853 141.923L269.823 144.401C269.788 144.429 269.764 144.47 269.755 144.514C269.747 144.559 269.755 144.605 269.777 144.645C269.799 144.685 269.835 144.715 269.878 144.731C269.92 144.747 269.967 144.747 270.01 144.731V144.731Z" fill="#0A0A0A"/>
<path opacity="0.2" d="M274.446 146.808C274.468 146.8 274.488 146.788 274.506 146.773L275.91 145.57C275.929 145.553 275.945 145.533 275.956 145.511C275.968 145.488 275.974 145.463 275.976 145.438C275.978 145.413 275.975 145.388 275.967 145.364C275.96 145.34 275.947 145.317 275.931 145.298C275.914 145.279 275.894 145.263 275.872 145.252C275.849 145.24 275.824 145.233 275.799 145.232C275.774 145.23 275.749 145.233 275.725 145.241C275.701 145.248 275.678 145.261 275.659 145.277L274.255 146.481C274.221 146.51 274.199 146.551 274.191 146.595C274.184 146.639 274.192 146.685 274.215 146.724C274.237 146.763 274.273 146.792 274.315 146.808C274.357 146.823 274.403 146.824 274.446 146.808V146.808Z" fill="#0A0A0A"/>
<path d="M344.471 123.439L344.397 123.114L331.689 66.9038L306.546 72.5874L316.466 116.463L276.73 126.227L281.621 148.648L334.572 138.548C334.691 138.525 334.868 138.489 334.988 138.462C336.597 138.098 338.119 137.421 339.466 136.469C340.814 135.517 341.96 134.31 342.841 132.915C343.721 131.52 344.319 129.965 344.598 128.339C344.878 126.713 344.835 125.048 344.471 123.439Z" fill="#09936F"/>
<path d="M276.536 126.269C276.526 126.219 276.535 126.167 276.563 126.123C276.59 126.08 276.633 126.048 276.683 126.036L316.241 116.32L309.81 87.9119C309.802 87.886 309.8 87.8589 309.804 87.8323C309.807 87.8057 309.816 87.78 309.83 87.7569C309.844 87.7339 309.862 87.7138 309.884 87.698C309.906 87.6822 309.93 87.671 309.957 87.6651C309.983 87.6591 310.01 87.6586 310.036 87.6634C310.063 87.6683 310.088 87.6785 310.11 87.6934C310.133 87.7083 310.152 87.7275 310.167 87.75C310.181 87.7725 310.191 87.7978 310.196 87.8243L316.671 116.423C316.683 116.474 316.674 116.527 316.647 116.572C316.62 116.616 316.576 116.648 316.525 116.661L276.964 126.376C276.964 126.376 277.229 127.533 277.304 127.923C277.31 127.974 277.295 128.025 277.263 128.065C277.232 128.105 277.185 128.131 277.134 128.137C277.084 128.143 277.033 128.128 276.992 128.096C276.952 128.065 276.927 128.018 276.921 127.967C276.829 127.54 276.536 126.269 276.536 126.269Z" fill="#0C0C0C"/>
<path d="M278.085 157.578L262.808 110.615C262.539 109.79 262.017 109.071 261.314 108.561C260.612 108.051 259.767 107.776 258.899 107.776H196.657C196.008 107.776 195.368 107.93 194.79 108.224C194.212 108.519 193.712 108.946 193.33 109.471C192.949 109.996 192.698 110.604 192.596 111.245C192.495 111.886 192.547 112.542 192.748 113.159L208.026 160.121C208.294 160.946 208.817 161.665 209.519 162.175C210.221 162.685 211.067 162.96 211.935 162.96H274.177C274.825 162.96 275.465 162.806 276.043 162.512C276.621 162.217 277.121 161.79 277.502 161.265C277.884 160.74 278.135 160.132 278.237 159.492C278.338 158.851 278.286 158.195 278.085 157.578V157.578Z" fill="#292A2E"/>
<path opacity="0.2" d="M278.085 157.578L262.808 110.615C262.539 109.79 262.017 109.071 261.314 108.561C260.612 108.051 259.767 107.776 258.899 107.776H196.657C196.008 107.776 195.368 107.93 194.79 108.224C194.212 108.519 193.712 108.946 193.33 109.471C192.949 109.996 192.698 110.604 192.596 111.245C192.495 111.886 192.547 112.542 192.748 113.159L208.026 160.121C208.294 160.946 208.817 161.665 209.519 162.175C210.221 162.685 211.067 162.96 211.935 162.96H274.177C274.825 162.96 275.465 162.806 276.043 162.512C276.621 162.217 277.121 161.79 277.502 161.265C277.884 160.74 278.135 160.132 278.237 159.492C278.338 158.851 278.286 158.195 278.085 157.578V157.578Z" fill="white"/>
<path d="M233.625 141.896C237.23 141.896 240.152 138.973 240.152 135.368C240.152 131.763 237.23 128.84 233.625 128.84C230.019 128.84 227.097 131.763 227.097 135.368C227.097 138.973 230.019 141.896 233.625 141.896Z" fill="white"/>
<path d="M172.172 4.9624H48.6361C42.913 4.9624 38.2734 9.60193 38.2734 15.3251V165.295C38.2734 171.018 42.913 175.657 48.6361 175.657H172.172C177.895 175.657 182.534 171.018 182.534 165.295V15.3251C182.534 9.60193 177.895 4.9624 172.172 4.9624Z" fill="#292A2E"/>
<path d="M176.736 0.396973H53.2006C47.4774 0.396973 42.8379 5.0365 42.8379 10.7596V160.729C42.8379 166.452 47.4774 171.092 53.2006 171.092H176.736C182.459 171.092 187.099 166.452 187.099 160.729V10.7596C187.099 5.0365 182.459 0.396973 176.736 0.396973Z" fill="white"/>
<path d="M176.736 171.488H53.2006C50.348 171.485 47.6131 170.35 45.5961 168.333C43.579 166.316 42.4445 163.581 42.4414 160.728V10.7592C42.4446 7.90668 43.5791 5.17185 45.5962 3.15479C47.6133 1.13772 50.3481 0.00314899 53.2006 0L176.736 0C179.589 0.00325393 182.323 1.13787 184.34 3.15493C186.357 5.17198 187.492 7.90675 187.495 10.7592V160.728C187.492 163.581 186.358 166.316 184.341 168.333C182.324 170.35 179.589 171.485 176.736 171.488V171.488ZM53.2006 0.793133C50.5584 0.796072 48.0252 1.84701 46.1568 3.71538C44.2884 5.58376 43.2375 8.11697 43.2345 10.7592V160.728C43.2375 163.371 44.2884 165.904 46.1568 167.772C48.0252 169.641 50.5584 170.691 53.2006 170.694H176.736C179.378 170.691 181.912 169.641 183.78 167.772C185.648 165.904 186.699 163.371 186.702 160.728V10.7592C186.699 8.117 185.648 5.58379 183.78 3.71541C181.912 1.84703 179.378 0.796072 176.736 0.793133H53.2006Z" fill="#292A2E"/>
<path d="M165.951 85.5684H63.991C61.5571 85.5684 59.584 87.5415 59.584 89.9754V104.269C59.584 106.703 61.5571 108.676 63.991 108.676H165.951C168.385 108.676 170.358 106.703 170.358 104.269V89.9754C170.358 87.5415 168.385 85.5684 165.951 85.5684Z" fill="white"/>
<path d="M165.951 109.072H63.9911C62.7176 109.071 61.4966 108.564 60.5961 107.664C59.6955 106.763 59.189 105.542 59.1875 104.269V89.9754C59.189 88.7018 59.6955 87.4808 60.596 86.5802C61.4966 85.6796 62.7175 85.173 63.9911 85.1714H165.951C167.224 85.1729 168.445 85.6795 169.346 86.5801C170.247 87.4807 170.753 88.7017 170.755 89.9754V104.269C170.753 105.542 170.247 106.763 169.346 107.664C168.445 108.565 167.224 109.071 165.951 109.072ZM63.9911 85.9645C62.9278 85.9657 61.9083 86.3886 61.1564 87.1406C60.4045 87.8925 59.9817 88.912 59.9806 89.9754V104.269C59.9818 105.332 60.4047 106.352 61.1566 107.103C61.9084 107.855 62.9278 108.278 63.9911 108.279H165.951C167.014 108.278 168.033 107.855 168.785 107.103C169.537 106.352 169.96 105.332 169.962 104.269V89.9754C169.96 88.912 169.537 87.8925 168.786 87.1405C168.034 86.3886 167.014 85.9657 165.951 85.9645H63.9911Z" fill="#292A2E"/>
<path d="M165.951 118.592H63.991C61.5571 118.592 59.584 120.565 59.584 122.999V137.293C59.584 139.727 61.5571 141.7 63.991 141.7H165.951C168.385 141.7 170.358 139.727 170.358 137.293V122.999C170.358 120.565 168.385 118.592 165.951 118.592Z" fill="white"/>
<path d="M165.951 142.096H63.9911C62.7174 142.095 61.4962 141.588 60.5957 140.687C59.6951 139.786 59.1887 138.565 59.1875 137.291V122.999C59.189 121.725 59.6955 120.504 60.5961 119.604C61.4966 118.703 62.7176 118.197 63.9911 118.195H165.951C167.224 118.197 168.445 118.703 169.346 119.604C170.247 120.504 170.753 121.725 170.755 122.999V137.291C170.754 138.565 170.247 139.786 169.346 140.687C168.446 141.588 167.225 142.095 165.951 142.096ZM63.9911 118.988C62.9278 118.99 61.9084 119.412 61.1566 120.164C60.4047 120.916 59.9818 121.936 59.9806 122.999V137.291C59.9818 138.354 60.4047 139.374 61.1566 140.126C61.9084 140.878 62.9278 141.3 63.9911 141.302H165.951C167.014 141.301 168.034 140.878 168.786 140.126C169.537 139.374 169.96 138.355 169.962 137.291V122.999C169.96 121.936 169.537 120.916 168.786 120.164C168.034 119.412 167.014 118.989 165.951 118.988H63.9911Z" fill="#292A2E"/>
<path d="M114.97 68.3809C128.045 68.3809 138.643 57.7823 138.643 44.7083C138.643 31.6342 128.045 21.0356 114.97 21.0356C101.896 21.0356 91.2979 31.6342 91.2979 44.7083C91.2979 57.7823 101.896 68.3809 114.97 68.3809Z" fill="white"/>
<path d="M114.971 68.7771C110.21 68.7771 105.557 67.3654 101.598 64.7207C97.6403 62.0759 94.5553 58.3168 92.7335 53.9188C90.9118 49.5207 90.4351 44.6812 91.3639 40.0122C92.2926 35.3432 94.5849 31.0545 97.9511 27.6884C101.317 24.3222 105.606 22.0299 110.275 21.1012C114.944 20.1725 119.783 20.6491 124.181 22.4708C128.58 24.2926 132.339 27.3776 134.983 31.3357C137.628 35.2939 139.04 39.9474 139.04 44.7079C139.033 51.0892 136.494 57.2072 131.982 61.7195C127.47 66.2318 121.352 68.7699 114.971 68.7771V68.7771ZM114.971 21.4318C110.367 21.4318 105.867 22.7969 102.039 25.3545C98.2114 27.9121 95.228 31.5474 93.4663 35.8005C91.7046 40.0537 91.2436 44.7337 92.1418 49.2488C93.0399 53.7639 95.2567 57.9113 98.5119 61.1665C101.767 64.4218 105.915 66.6386 110.43 67.5367C114.945 68.4348 119.625 67.9739 123.878 66.2122C128.131 64.4504 131.766 61.4671 134.324 57.6394C136.882 53.8116 138.247 49.3114 138.247 44.7079C138.24 38.5368 135.785 32.6205 131.422 28.2569C127.058 23.8933 121.142 21.4387 114.971 21.4318V21.4318Z" fill="#292A2E"/>
<path opacity="0.5" d="M138.118 44.7084C138.125 50.1876 136.181 55.4903 132.634 59.6664C130.449 57.1195 127.739 55.0753 124.69 53.674C121.641 52.2727 118.326 51.5474 114.97 51.548C111.614 51.5486 108.299 52.2751 105.25 53.6775C102.202 55.0799 99.4929 57.1251 97.3092 59.6728C94.9006 56.83 93.2138 53.4479 92.3921 49.8137C91.5705 46.1795 91.6382 42.4006 92.5896 38.7982C93.5411 35.1958 95.348 31.8763 97.857 29.1217C100.366 26.3671 103.503 24.2589 107.001 22.9761C110.499 21.6934 114.255 21.274 117.95 21.7536C121.645 22.2333 125.17 23.5978 128.224 25.7312C131.279 27.8646 133.774 30.7038 135.496 34.0077C137.219 37.3116 138.118 40.9824 138.118 44.7084V44.7084Z" fill="#367CFF"/>
<path d="M132.634 59.6663C130.462 62.2318 127.756 64.2933 124.706 65.7074C121.656 67.1216 118.335 67.8544 114.973 67.855C111.612 67.8556 108.29 67.124 105.239 65.7109C102.189 64.2979 99.483 62.2373 97.3096 59.6726C99.4933 57.1249 102.202 55.0797 105.251 53.6773C108.299 52.2749 111.615 51.5485 114.97 51.5479C118.326 51.5472 121.642 52.2725 124.691 53.6738C127.74 55.0751 130.449 57.1193 132.634 59.6663V59.6663Z" fill="white"/>
<path d="M114.971 47.229C120.139 47.229 124.328 43.0401 124.328 37.8728C124.328 32.7055 120.139 28.5166 114.971 28.5166C109.804 28.5166 105.615 32.7055 105.615 37.8728C105.615 43.0401 109.804 47.229 114.971 47.229Z" fill="white"/>
<g opacity="0.4">
<path opacity="0.4" d="M68.1646 132.961C69.7188 132.961 70.9787 131.701 70.9787 130.147C70.9787 128.592 69.7188 127.333 68.1646 127.333C66.6105 127.333 65.3506 128.592 65.3506 130.147C65.3506 131.701 66.6105 132.961 68.1646 132.961Z" fill="#292A2E"/>
<path opacity="0.4" d="M76.9674 132.961C78.5215 132.961 79.7814 131.701 79.7814 130.147C79.7814 128.592 78.5215 127.333 76.9674 127.333C75.4132 127.333 74.1533 128.592 74.1533 130.147C74.1533 131.701 75.4132 132.961 76.9674 132.961Z" fill="#292A2E"/>
<path opacity="0.4" d="M85.7691 132.961C87.3233 132.961 88.5831 131.701 88.5831 130.147C88.5831 128.592 87.3233 127.333 85.7691 127.333C84.215 127.333 82.9551 128.592 82.9551 130.147C82.9551 131.701 84.215 132.961 85.7691 132.961Z" fill="#292A2E"/>
<path opacity="0.4" d="M94.5728 132.961C96.127 132.961 97.3869 131.701 97.3869 130.147C97.3869 128.592 96.127 127.333 94.5728 127.333C93.0187 127.333 91.7588 128.592 91.7588 130.147C91.7588 131.701 93.0187 132.961 94.5728 132.961Z" fill="#292A2E"/>
<path opacity="0.4" d="M103.375 132.961C104.929 132.961 106.189 131.701 106.189 130.147C106.189 128.592 104.929 127.333 103.375 127.333C101.82 127.333 100.561 128.592 100.561 130.147C100.561 131.701 101.82 132.961 103.375 132.961Z" fill="#292A2E"/>
<path opacity="0.4" d="M112.177 132.961C113.731 132.961 114.991 131.701 114.991 130.147C114.991 128.592 113.731 127.333 112.177 127.333C110.623 127.333 109.363 128.592 109.363 130.147C109.363 131.701 110.623 132.961 112.177 132.961Z" fill="#292A2E"/>
<path opacity="0.4" d="M120.979 132.961C122.533 132.961 123.793 131.701 123.793 130.147C123.793 128.592 122.533 127.333 120.979 127.333C119.425 127.333 118.165 128.592 118.165 130.147C118.165 131.701 119.425 132.961 120.979 132.961Z" fill="#292A2E"/>
</g>
<g opacity="0.3">
<path opacity="0.3" d="M70.9567 96.9531V97.9049H67.3428V96.9531H70.9567Z" fill="black"/>
<path opacity="0.3" d="M75.4479 96.9531V97.9049H71.834V96.9531H75.4479Z" fill="black"/>
<path opacity="0.3" d="M79.9381 96.9531V97.9049H76.3242V96.9531H79.9381Z" fill="black"/>
<path opacity="0.3" d="M84.4293 96.9531V97.9049H80.8154V96.9531H84.4293Z" fill="black"/>
<path opacity="0.3" d="M88.9209 96.9531V97.9049H85.3066V96.9531H88.9209Z" fill="black"/>
<path opacity="0.3" d="M97.0255 102.323C96.2217 102.736 95.3261 102.938 94.4229 102.909C92.0232 102.909 89.9893 101.153 89.9893 98.3441C89.9893 95.3302 92.0819 92.7256 95.3298 92.7256C97.8758 92.7256 99.5877 94.5101 99.5877 96.9542C99.5877 99.1492 98.3584 100.436 96.9831 100.436C96.3982 100.436 95.8569 100.04 95.9005 99.1492H95.8418C95.6526 99.5349 95.3591 99.86 94.9947 100.087C94.6302 100.315 94.2093 100.436 93.7796 100.436C92.931 100.436 92.1993 99.7488 92.1993 98.5932C92.1977 98.1373 92.2863 97.6856 92.46 97.2641C92.6337 96.8426 92.8891 96.4597 93.2114 96.1373C93.5338 95.815 93.9168 95.5596 94.3382 95.3859C94.7597 95.2122 95.2114 95.1236 95.6673 95.1252C96.2049 95.1174 96.7382 95.2221 97.2329 95.4325L96.7352 98.0808C96.5159 99.1912 96.6916 99.7067 97.1742 99.7198C97.9206 99.7341 98.7546 98.7391 98.7546 97.0422C98.7546 94.9206 97.4816 93.399 95.2136 93.399C92.8287 93.399 90.824 95.2862 90.824 98.2565C90.824 100.7 92.419 102.207 94.5847 102.207C95.3524 102.225 96.1123 102.049 96.7939 101.695L97.0255 102.323ZM96.2209 96.002C95.9833 95.9322 95.7368 95.8978 95.4892 95.8997C94.2016 95.8997 93.163 97.114 93.163 98.5333C93.163 99.1769 93.485 99.6437 94.1286 99.6437C94.9773 99.6437 95.7526 98.5611 95.9132 97.6537L96.2209 96.002Z" fill="black"/>
<path opacity="0.3" d="M104.193 96.9531V97.9049H100.579V96.9531H104.193Z" fill="black"/>
<path opacity="0.3" d="M108.684 96.9531V97.9049H105.069V96.9531H108.684Z" fill="black"/>
<path opacity="0.3" d="M113.175 96.9531V97.9049H109.562V96.9531H113.175Z" fill="black"/>
</g>
</svg>
