<svg width="285" height="473" viewBox="0 0 285 473" fill="none" xmlns="http://www.w3.org/2000/svg">
<circle cx="144.5" cy="215.5" r="140.5" fill="black" fill-opacity="0.1"/>
<circle cx="116.5" cy="400.5" r="36.5" fill="black" fill-opacity="0.1"/>
<circle cx="72" cy="454" r="19" fill="black" fill-opacity="0.1"/>
<g filter="url(#filter0_d_2351_12434)">
<path d="M167.222 43.3724L156.088 13.8519L15.0098 67.0596L26.1432 96.5796C31.9665 112.015 42.6907 125.116 56.6721 133.873C70.6536 142.631 87.121 146.562 103.551 145.064C105.966 144.854 108.383 145.438 110.435 146.729C112.487 148.02 114.061 149.947 114.916 152.215C115.772 154.483 115.862 156.969 115.174 159.293C114.485 161.618 113.056 163.654 111.103 165.09C97.7763 174.815 88.006 188.642 83.29 204.452C78.5739 220.262 79.1722 237.182 84.9933 252.619L96.1271 282.14L237.206 228.932L226.072 199.411C220.248 183.976 209.524 170.875 195.543 162.118C181.561 153.36 165.094 149.429 148.664 150.927C146.249 151.138 143.831 150.553 141.779 149.262C139.727 147.971 138.153 146.045 137.298 143.776C136.442 141.508 136.352 139.022 137.04 136.697C137.729 134.373 139.159 132.337 141.112 130.901C154.438 121.176 164.208 107.349 168.925 91.5398C173.641 75.7306 173.043 58.8111 167.223 43.3742" fill="#367CFF"/>
<path opacity="0.8" d="M167.222 43.3724L156.088 13.8519L15.0098 67.0596L26.1432 96.5796C31.9665 112.015 42.6907 125.116 56.6721 133.873C70.6536 142.631 87.121 146.562 103.551 145.064C105.966 144.854 108.383 145.438 110.435 146.729C112.487 148.02 114.061 149.947 114.916 152.215C115.772 154.483 115.862 156.969 115.174 159.293C114.485 161.618 113.056 163.654 111.103 165.09C97.7763 174.815 88.006 188.642 83.29 204.452C78.5739 220.262 79.1722 237.182 84.9933 252.619L96.1271 282.14L237.206 228.932L226.072 199.411C220.248 183.976 209.524 170.875 195.543 162.118C181.561 153.36 165.094 149.429 148.664 150.927C146.249 151.138 143.831 150.553 141.779 149.262C139.727 147.971 138.153 146.045 137.298 143.776C136.442 141.508 136.352 139.022 137.04 136.697C137.729 134.373 139.159 132.337 141.112 130.901C154.438 121.176 164.208 107.349 168.925 91.5398C173.641 75.7306 173.043 58.8111 167.223 43.3742" fill="white"/>
<path d="M237.819 229.21L95.849 282.754L84.5473 252.788C78.715 237.25 78.1263 220.231 82.8708 204.327C87.6153 188.424 97.4325 174.509 110.824 164.706C112.693 163.331 114.061 161.383 114.72 159.158C115.379 156.933 115.292 154.554 114.473 152.383C113.655 150.213 112.149 148.369 110.185 147.133C108.221 145.898 105.907 145.338 103.596 145.539C87.0659 147.022 70.505 143.055 56.44 134.246C42.375 125.436 31.5782 112.267 25.697 96.7479L14.3955 66.7822L156.365 13.2384L167.667 43.2045C173.499 58.742 174.088 75.7607 169.344 91.6641C164.6 107.567 154.783 121.482 141.391 131.285C139.523 132.66 138.155 134.608 137.496 136.833C136.837 139.058 136.924 141.437 137.742 143.608C138.561 145.778 140.067 147.622 142.031 148.858C143.995 150.093 146.309 150.653 148.62 150.452C165.15 148.97 181.71 152.936 195.775 161.746C209.84 170.556 220.636 183.725 226.517 199.244L237.819 229.21ZM96.4059 281.526L236.591 228.655L225.626 199.58C219.819 184.256 209.158 171.252 195.27 162.553C181.382 153.854 165.03 149.937 148.708 151.4C146.188 151.621 143.666 151.012 141.525 149.666C139.385 148.32 137.743 146.31 136.85 143.944C135.958 141.578 135.864 138.985 136.583 136.56C137.301 134.136 138.793 132.013 140.831 130.515C154.054 120.835 163.747 107.095 168.432 91.3915C173.116 75.6879 172.535 58.8829 166.776 43.5407L155.81 14.4659L15.6229 67.3374L26.5883 96.4117C32.3956 111.736 43.0567 124.74 56.945 133.439C70.8333 142.138 87.1861 146.054 103.508 144.591C106.027 144.37 108.549 144.98 110.69 146.326C112.83 147.672 114.472 149.682 115.364 152.047C116.257 154.413 116.351 157.006 115.632 159.431C114.914 161.855 113.422 163.978 111.385 165.476C98.1616 175.156 88.4679 188.896 83.7831 204.6C79.0983 220.304 79.6797 237.109 85.4386 252.451L96.4059 281.526Z" fill="#292A2E"/>
<path d="M162.257 5.3871C162.788 6.79119 162.747 8.34709 162.144 9.72137C161.54 11.0957 160.423 12.179 159.03 12.7391C158.99 12.7573 158.952 12.7717 158.911 12.7873L12.4268 68.0336C12.3853 68.0492 12.347 68.0636 12.305 68.0764C10.8788 68.5783 9.31224 68.4974 7.94533 67.8513C6.57842 67.2053 5.52147 66.0462 5.00387 64.6257C4.48628 63.2051 4.54982 61.6378 5.18071 60.2638C5.81159 58.8898 6.9589 57.8201 8.37362 57.2868L154.856 2.04127C155.561 1.77485 156.313 1.65006 157.066 1.67402C157.82 1.69799 158.562 1.87024 159.25 2.18094C159.937 2.49164 160.556 2.9347 161.072 3.48482C161.589 4.03494 161.991 4.68134 162.257 5.3871V5.3871Z" fill="#292A2E"/>
<path d="M150.481 205.075L126.418 141.272C125.449 138.868 125.296 136.214 125.983 133.715C126.669 131.217 128.157 129.012 130.218 127.441C152.589 111.157 167.367 80.0066 158.808 53.8548C158.348 52.4526 156.794 52.001 155.413 52.5217L41.0495 95.6537C39.668 96.1748 38.7999 97.5401 39.3807 98.8965C50.2228 124.187 81.8911 137.821 109.444 135.276C113.345 134.921 119.341 137.605 121.493 143.312L145.498 206.96C147.229 211.55 146.97 216.1 144.949 220.569C143.28 224.26 116.166 274.58 116.166 274.58L217.163 236.489C217.163 236.489 163.048 216.347 159.959 214.949C155.49 212.929 152.212 209.665 150.481 205.075Z" fill="#FAFAFA"/>
<path d="M246.935 229.795C247.466 231.199 247.425 232.755 246.822 234.129C246.218 235.504 245.101 236.587 243.708 237.147C243.668 237.165 243.63 237.179 243.589 237.195L97.105 292.441C97.064 292.456 97.0257 292.471 96.9837 292.484C95.5575 292.985 93.991 292.905 92.6242 292.259C91.2573 291.613 90.2003 290.454 89.6827 289.033C89.165 287.613 89.2285 286.045 89.8593 284.671C90.4901 283.297 91.6373 282.228 93.0519 281.694L239.536 226.448C240.961 225.911 242.541 225.961 243.929 226.589C245.316 227.217 246.398 228.37 246.935 229.795V229.795Z" fill="#292A2E"/>
</g>
<defs>
<filter id="filter0_d_2351_12434" x="0.657227" y="1.6709" width="250.648" height="299.138" filterUnits="userSpaceOnUse" color-interpolation-filters="sRGB">
<feFlood flood-opacity="0" result="BackgroundImageFix"/>
<feColorMatrix in="SourceAlpha" type="matrix" values="0 0 0 0 0 0 0 0 0 0 0 0 0 0 0 0 0 0 127 0" result="hardAlpha"/>
<feOffset dy="4"/>
<feGaussianBlur stdDeviation="2"/>
<feComposite in2="hardAlpha" operator="out"/>
<feColorMatrix type="matrix" values="0 0 0 0 0 0 0 0 0 0 0 0 0 0 0 0 0 0 0.25 0"/>
<feBlend mode="normal" in2="BackgroundImageFix" result="effect1_dropShadow_2351_12434"/>
<feBlend mode="normal" in="SourceGraphic" in2="effect1_dropShadow_2351_12434" result="shape"/>
</filter>
</defs>
</svg>
